<svg display='none' xmlns='http://www.w3.org/2000/svg'>
    <symbol id='github' viewBox="0 0 24 24">
        <g>
            <path d="M10.9,2.1c-4.6,0.5-8.3,4.2-8.8,8.7c-0.5,4.7,2.2,8.9,6.3,10.5C8.7,21.4,9,21.2,9,20.8v-1.6c0,0-0.4,0.1-0.9,0.1 c-1.4,0-2-1.2-2.1-1.9c-0.1-0.4-0.3-0.7-0.6-1C5.1,16.3,5,16.3,5,16.2C5,16,5.3,16,5.4,16c0.6,0,1.1,0.7,1.3,1c0.5,0.8,1.1,1,1.4,1 c0.4,0,0.7-0.1,0.9-0.2c0.1-0.7,0.4-1.4,1-1.8c-2.3-0.5-4-1.8-4-4c0-1.1,0.5-2.2,1.2-3C7.1,8.8,7,8.3,7,7.6C7,7.2,7,6.6,7.3,6 c0,0,1.4,0,2.8,1.3C10.6,7.1,11.3,7,12,7s1.4,0.1,2,0.3C15.3,6,16.8,6,16.8,6C17,6.6,17,7.2,17,7.6c0,0.8-0.1,1.2-0.2,1.4 c0.7,0.8,1.2,1.8,1.2,3c0,2.2-1.7,3.5-4,4c0.6,0.5,1,1.4,1,2.3v2.6c0,0.3,0.3,0.6,0.7,0.5c3.7-1.5,6.3-5.1,6.3-9.3 C22,6.1,16.9,1.4,10.9,2.1z"/>
        </g>
    </symbol>
    <symbol id='nameSearch' viewBox="0 0 14 14">
        <g>
           <path  d="M6.23497 0C2.79706 0 0 2.79706 0 6.23497C0 9.67288 2.79706 12.4699 6.23497 12.4699C7.63766 12.4699 8.92987 11.9995 9.97123 11.216L12.4982 13.7422C12.6697 13.9138 12.8951 14 13.1202 14C13.3453 14 13.5707 13.9138 13.7422 13.7422C14.0862 13.3983 14.0862 12.8421 13.7422 12.4982L11.216 9.97123C11.9995 8.92987 12.4699 7.63766 12.4699 6.23497C12.4699 2.79706 9.67288 0 6.23497 0ZM1.75956 6.23497C1.75956 3.76687 3.76687 1.75956 6.23497 1.75956C8.70307 1.75956 10.7104 3.76687 10.7104 6.23497C10.7104 8.70307 8.70307 10.7104 6.23497 10.7104C3.76687 10.7104 1.75956 8.70307 1.75956 6.23497Z"/>
        </g>
    </symbol>
    <symbol id='userNotFoundIcon' viewBox="0 0 65 75">
        <g>
          <path  d="M23 18.5C23 13.2533 27.2533 9 32.5 9C37.7467 9 42 13.2533 42 18.5C42 23.7467 37.7467 28 32.5 28C27.2533 28 23 23.7467 23 18.5ZM32.5 0C22.2827 0 14 8.28273 14 18.5C14 28.7173 22.2827 37 32.5 37C42.7173 37 51 28.7173 51 18.5C51 8.28273 42.7173 0 32.5 0ZM9 70.5C9 57.5213 19.5213 47 32.5 47C45.4787 47 56 57.5213 56 70.5C56 72.9853 58.0147 75 60.5 75C62.9853 75 65 72.9853 65 70.5C65 52.5507 50.4493 38 32.5 38C14.5507 38 0 52.5507 0 70.5C0 72.9853 2.01472 75 4.5 75C6.98528 75 9 72.9853 9 70.5Z"/>
        </g>
    </symbol>
    <symbol id='followers' viewBox="0 0 23 15">
        <g>
          <path d="M10.028 3.73877C10.028 5.39877 8.69338 6.73877 7.02764 6.73877C5.3619 6.73877 4.01726 5.39877 4.01726 3.73877C4.01726 2.07877 5.3619 0.73877 7.02764 0.73877C8.69338 0.73877 10.028 2.07877 10.028 3.73877ZM18.0557 3.73877C18.0557 5.39877 16.7211 6.73877 15.0553 6.73877C13.3896 6.73877 12.0449 5.39877 12.0449 3.73877C12.0449 2.07877 13.3896 0.73877 15.0553 0.73877C16.7211 0.73877 18.0557 2.07877 18.0557 3.73877ZM7.02764 8.73877C4.68958 8.73877 0.00341797 9.90877 0.00341797 12.2388V13.7388C0.00341797 14.2888 0.454975 14.7388 1.00688 14.7388H13.0484C13.6003 14.7388 14.0519 14.2888 14.0519 13.7388V12.2388C14.0519 9.90877 9.3657 8.73877 7.02764 8.73877ZM14.082 8.78877C14.4332 8.75877 14.7643 8.73877 15.0553 8.73877C17.3934 8.73877 22.0795 9.90877 22.0795 12.2388V13.7388C22.0795 14.2888 21.628 14.7388 21.0761 14.7388H15.8782C15.9885 14.4288 16.0588 14.0888 16.0588 13.7388V12.2388C16.0588 10.7688 15.266 9.65877 14.1221 8.82877C14.1191 8.82574 14.116 8.8218 14.1127 8.81749C14.1051 8.80758 14.096 8.79574 14.082 8.78877Z" />
        </g>
    </symbol>
    <symbol id='following' viewBox="0 0 17 17">
        <g>
          <path d="M12.0553 4.73877C12.0553 6.94877 10.2591 8.73877 8.04148 8.73877C5.82383 8.73877 4.02763 6.94877 4.02763 4.73877C4.02763 2.52877 5.82383 0.73877 8.04148 0.73877C10.2591 0.73877 12.0553 2.52877 12.0553 4.73877ZM0.0137939 14.7388C0.0137939 12.0788 5.36224 10.7388 8.04148 10.7388C10.7207 10.7388 16.0692 12.0788 16.0692 14.7388V15.7388C16.0692 16.2888 15.6176 16.7388 15.0657 16.7388H1.01725C0.465351 16.7388 0.0137939 16.2888 0.0137939 15.7388V14.7388Z"/>
        </g>
    </symbol>
        <symbol id='repositoryEmptyIcon' viewBox="0 0 76 62">
        <g>
          <path d="M14.5 0C6.49187 0 0 6.49187 0 14.5V47.5C0 55.5081 6.49187 62 14.5 62H61.5C69.5081 62 76 55.5081 76 47.5V14.5C76 6.49187 69.5081 0 61.5 0H14.5ZM9 14.5C9 11.4624 11.4624 9 14.5 9H61.5C64.5376 9 67 11.4624 67 14.5V47.5C67 50.5376 64.5376 53 61.5 53H14.5C11.4624 53 9 50.5376 9 47.5V14.5ZM48.1984 24.6422C49.37 23.4706 49.37 21.5711 48.1984 20.3995C47.0268 19.228 45.1274 19.228 43.9558 20.3995L38.2989 26.0564L32.6421 20.3995C31.4705 19.228 29.571 19.228 28.3994 20.3995C27.2279 21.5711 27.2279 23.4706 28.3994 24.6422L34.0563 30.299L28.3994 35.9559C27.2279 37.1274 27.2279 39.0269 28.3994 40.1985C29.571 41.3701 31.4705 41.3701 32.6421 40.1985L38.2989 34.5417L43.9558 40.1985C45.1273 41.3701 47.0268 41.3701 48.1984 40.1985C49.37 39.0269 49.37 37.1274 48.1984 35.9559L42.5416 30.299L48.1984 24.6422Z"/>
        </g>
    </symbol>
</svg>
